# xmcd
#
# Track frame offsets:
#	150
#	41404
#	56802
#	78769
#	100759
#	132007
#	147603
#	160474
#	193479
#	237133
#	258991
#	264385
#
# Disc length: 3701 seconds
#
# Revision: 0
# Processed by: cddbd v1.5PL3 Copyright (c) Steve Scherf et al.
# Submitted via: dBpowerAMP V4.0
#
DISCID=a70e730c
DTITLE=Nina Simone - Live at Ronnie Scott's
DYEAR=1900
DGENRE=Blues
TTITLE0=God God God
TTITLE1=Just in Time
TTITLE2=Let it be me
TTITLE3=The Other Woman
TTITLE4=I Got Life
TTITLE5=If You Only Knew
TTITLE6=Young, Gifted and Black
TTITLE7=Moon Over Alabama/Mississippi Goddam
TTITLE8=Because/My Father's Dream
TTITLE9=Let No One Deceive You
TTITLE10=American Pie
TTITLE11=Just to Know That I'm Alive
EXTD=
EXTT0=
EXTT1=
EXTT2=
EXTT3=
EXTT4=
EXTT5=
EXTT6=
EXTT7=
EXTT8=
EXTT9=
EXTT10=
EXTT11=
PLAYORDER=
